# xmcd CD database file
#
# Track frame offsets:
#	150
#	23164
#	48129
#	70002
#	86559
#	106020
#	128094
#	143055
#	170540
#	194943
#	217134
#	238469
#
# Disc length: 3307 seconds
#
# Revision: 0
# Processed by: cddbd v1.5.1PL0 Copyright (c) Steve Scherf et al.
# Submitted via: CDex 1.60beta1
#
DISCID=ae0ce90c
DTITLE=与世山澄子 - Interlude
DYEAR=2005
DGENRE=Jazz Vocal
TTITLE0=Interlude
TTITLE1=Misty
TTITLE2=Lover Man
TTITLE3=Somewhere In The Night
TTITLE4=If
TTITLE5=Since I Fell For You
TTITLE6=Night And Day
TTITLE7=Poor Butterfly
TTITLE8=What A Wonderful World
TTITLE9=So In Love
TTITLE10=Left Alone
TTITLE11=Bookends
EXTD=YEAR: 2005
EXTT0=
EXTT1=
EXTT2=
EXTT3=
EXTT4=
EXTT5=
EXTT6=
EXTT7=
EXTT8=
EXTT9=
EXTT10=
EXTT11=
PLAYORDER=
